<svg xmlns="http://www.w3.org/2000/svg" viewBox="0 0 1500 820" role="img" aria-labelledby="title desc">
  <title id="title">tau2 Airline Benchmark: Intervention Deltas</title>
  <desc id="desc">Horizontal bar chart comparing intervention deltas versus baseline on the tau2 airline benchmark.</desc>
  <rect width="1500" height="820" fill="#ffffff" />
  <g font-family="Arial, Helvetica, sans-serif" fill="#111111">
    <text x="750" y="44" text-anchor="middle" font-size="34" font-weight="700">tau2 Airline Benchmark: Intervention Deltas</text>

    <g stroke="#d9dee5" stroke-width="1">
      <line x1="100" y1="80" x2="100" y2="720" />
      <line x1="266" y1="80" x2="266" y2="720" />
      <line x1="433" y1="80" x2="433" y2="720" />
      <line x1="600" y1="80" x2="600" y2="720" />
      <line x1="766" y1="80" x2="766" y2="720" />
      <line x1="933" y1="80" x2="933" y2="720" />
      <line x1="1100" y1="80" x2="1100" y2="720" />
      <line x1="1266" y1="80" x2="1266" y2="720" />
      <line x1="1433" y1="80" x2="1433" y2="720" />
    </g>
    <line x1="600" y1="80" x2="600" y2="720" stroke="#5a6169" stroke-width="2" />

    <text x="585" y="160" text-anchor="end" font-size="28">Best-of-N skillbook scoring</text>
    <text x="585" y="330" text-anchor="end" font-size="28">Tighten reflector hyperparameters</text>
    <text x="585" y="500" text-anchor="end" font-size="28">Runtime context injection</text>
    <text x="585" y="670" text-anchor="end" font-size="28">Context injection + skillbook scoring</text>

    <rect x="600" y="110" width="679" height="100" fill="#2fa786" opacity="0.97" />
    <rect x="600" y="280" width="401" height="100" fill="#2fa786" opacity="0.97" />
    <rect x="600" y="450" width="370" height="100" fill="#2fa786" opacity="0.97" />
    <rect x="167" y="620" width="433" height="100" fill="#e53e3e" opacity="0.98" />

    <text x="1257" y="166" text-anchor="end" font-size="28" font-weight="700">+40.7%</text>
    <text x="980" y="336" text-anchor="end" font-size="28" font-weight="700">+24.1%</text>
    <text x="949" y="506" text-anchor="end" font-size="28" font-weight="700">+22.2%</text>
    <text x="187" y="676" text-anchor="start" font-size="28" font-weight="700">-26.0%</text>

    <g font-size="18" fill="#3d4650">
      <text x="100" y="750" text-anchor="middle">-30</text>
      <text x="266" y="750" text-anchor="middle">-20</text>
      <text x="433" y="750" text-anchor="middle">-10</text>
      <text x="600" y="750" text-anchor="middle">0</text>
      <text x="766" y="750" text-anchor="middle">10</text>
      <text x="933" y="750" text-anchor="middle">20</text>
      <text x="1100" y="750" text-anchor="middle">30</text>
      <text x="1266" y="750" text-anchor="middle">40</text>
      <text x="1433" y="750" text-anchor="middle">50</text>
    </g>

    <text x="766" y="790" text-anchor="middle" font-size="22">Score vs Baseline (Relative Change in pass^4 %)</text>
  </g>
</svg>
